<svg width="927" height="336" viewBox="0 0 927 336" fill="none" xmlns="http://www.w3.org/2000/svg">
    <path d="M0.233609 271.447V254.256V237.065H17.3799H34.6157V254.256V271.447H17.3799H0.233609ZM21.7224 271.447V254.256V237.065H38.8686H56.1044V254.256V271.447H38.8686H21.7224ZM43.2112 271.447V254.256V237.065H60.3574H77.5932V254.256V271.447H60.3574H43.2112ZM64.6999 271.447V254.256V237.065H81.8462H99.082V254.256V271.447H81.8462H64.6999ZM0.233609 249.958V232.767V215.576H17.3799H34.6157V232.767V249.958H17.3799H0.233609ZM0.233609 228.469V211.278V194.087H17.3799H34.6157V211.278V228.469H17.3799H0.233609ZM0.233609 206.98V189.789V172.598H17.3799H34.6157V189.789V206.98H17.3799H0.233609ZM0.233609 185.492V168.3V151.109H17.3799H34.6157V168.3V185.492H17.3799H0.233609ZM0.233609 164.003V146.812V129.621H17.3799H34.6157V146.812V164.003H17.3799H0.233609ZM0.233609 142.514V125.323V108.132H17.3799H34.6157V125.323V142.514H17.3799H0.233609ZM0.233609 121.025V103.834V86.6431H17.3799H34.6157V103.834V121.025H17.3799H0.233609ZM0.233609 99.5364V82.3454V65.1544H17.3799H34.6157V82.3454V99.5364H17.3799H0.233609ZM0.233609 78.0476V60.8566V43.6656H17.3799H34.6157V60.8566V78.0476H17.3799H0.233609ZM0.233609 56.5588V39.3678V22.1768H17.3799H34.6157V39.3678V56.5588H17.3799H0.233609ZM139.806 271.447V254.256V237.065H156.952H174.188V254.256V271.447H156.952H139.806ZM161.295 271.447V254.256V237.065H178.441H195.677V254.256V271.447H178.441H161.295ZM182.783 271.447V254.256V237.065H199.93H217.165V254.256V271.447H199.93H182.783ZM118.317 249.958V232.767V215.576H135.463H152.699V232.767V249.958H135.463H118.317ZM204.272 249.958V232.767V215.576H221.418H238.654V232.767V249.958H221.418H204.272ZM118.317 228.469V211.278V194.087H135.463H152.699V211.278V228.469H135.463H118.317ZM118.317 206.98V189.789V172.598H135.463H152.699V189.789V206.98H135.463H118.317ZM118.317 185.492V168.3V151.109H135.463H152.699V168.3V185.492H135.463H118.317ZM139.806 185.492V168.3V151.109H156.952H174.188V168.3V185.492H156.952H139.806ZM161.295 185.492V168.3V151.109H178.441H195.677V168.3V185.492H178.441H161.295ZM182.783 185.492V168.3V151.109H199.93H217.165V168.3V185.492H199.93H182.783ZM204.272 185.492V168.3V151.109H221.418H238.654V168.3V185.492H221.418H204.272ZM118.317 164.003V146.812V129.621H135.463H152.699V146.812V164.003H135.463H118.317ZM204.272 164.003V146.812V129.621H221.418H238.654V146.812V164.003H221.418H204.272ZM118.317 142.514V125.323V108.132H135.463H152.699V125.323V142.514H135.463H118.317ZM204.272 142.514V125.323V108.132H221.418H238.654V125.323V142.514H221.418H204.272ZM139.806 121.025V103.834V86.6431H156.952H174.188V103.834V121.025H156.952H139.806ZM161.295 121.025V103.834V86.6431H178.441H195.677V103.834V121.025H178.441H161.295ZM182.783 121.025V103.834V86.6431H199.93H217.165V103.834V121.025H199.93H182.783ZM290.395 271.447V254.256V237.065H307.541H324.777V254.256V271.447H307.541H290.395ZM279.651 249.958V232.767V215.576H296.797H314.033V232.767V249.958H296.797H279.651ZM301.139 249.958V232.767V215.576H318.286H335.521V232.767V249.958H318.286H301.139ZM268.906 228.469V211.278V194.087H286.053H303.288V211.278V228.469H286.053H268.906ZM311.884 228.469V211.278V194.087H329.03H346.266V211.278V228.469H329.03H311.884ZM258.162 206.98V189.789V172.598H275.308H292.544V189.789V206.98H275.308H258.162ZM322.628 206.98V189.789V172.598H339.774H357.01V189.789V206.98H339.774H322.628ZM247.418 185.492V168.3V151.109H264.564H281.8V168.3V185.492H264.564H247.418ZM333.373 185.492V168.3V151.109H350.519H367.755V168.3V185.492H350.519H333.373ZM247.418 164.003V146.812V129.621H264.564H281.8V146.812V164.003H264.564H247.418ZM333.373 164.003V146.812V129.621H350.519H367.755V146.812V164.003H350.519H333.373ZM247.418 142.514V125.323V108.132H264.564H281.8V125.323V142.514H264.564H247.418ZM333.373 142.514V125.323V108.132H350.519H367.755V125.323V142.514H350.519H333.373ZM247.418 121.025V103.834V86.6431H264.564H281.8V103.834V121.025H264.564H247.418ZM333.373 121.025V103.834V86.6431H350.519H367.755V103.834V121.025H350.519H333.373ZM408.436 271.447V254.256V237.065H425.583H442.818V254.256V271.447H425.583H408.436ZM429.925 271.447V254.256V237.065H447.071H464.307V254.256V271.447H447.071H429.925ZM451.414 271.447V254.256V237.065H468.56H485.796V254.256V271.447H468.56H451.414ZM386.948 249.958V232.767V215.576H404.094H421.33V232.767V249.958H404.094H386.948ZM472.903 249.958V232.767V215.576H490.049H507.285V232.767V249.958H490.049H472.903ZM386.948 228.469V211.278V194.087H404.094H421.33V211.278V228.469H404.094H386.948ZM386.948 206.98V189.789V172.598H404.094H421.33V189.789V206.98H404.094H386.948ZM386.948 185.492V168.3V151.109H404.094H421.33V168.3V185.492H404.094H386.948ZM408.436 185.492V168.3V151.109H425.583H442.818V168.3V185.492H425.583H408.436ZM429.925 185.492V168.3V151.109H447.071H464.307V168.3V185.492H447.071H429.925ZM451.414 185.492V168.3V151.109H468.56H485.796V168.3V185.492H468.56H451.414ZM472.903 185.492V168.3V151.109H490.049H507.285V168.3V185.492H490.049H472.903ZM386.948 164.003V146.812V129.621H404.094H421.33V146.812V164.003H404.094H386.948ZM472.903 164.003V146.812V129.621H490.049H507.285V146.812V164.003H490.049H472.903ZM386.948 142.514V125.323V108.132H404.094H421.33V125.323V142.514H404.094H386.948ZM472.903 142.514V125.323V108.132H490.049H507.285V125.323V142.514H490.049H472.903ZM408.436 121.025V103.834V86.6431H425.583H442.818V103.834V121.025H425.583H408.436ZM429.925 121.025V103.834V86.6431H447.071H464.307V103.834V121.025H447.071H429.925ZM451.414 121.025V103.834V86.6431H468.56H485.796V103.834V121.025H468.56H451.414ZM526.793 271.447V254.256V237.065H543.939H561.175V254.256V271.447H543.939H526.793ZM526.793 249.958V232.767V215.576H543.939H561.175V232.767V249.958H543.939H526.793ZM526.793 228.469V211.278V194.087H543.939H561.175V211.278V228.469H543.939H526.793ZM526.793 206.98V189.789V172.598H543.939H561.175V189.789V206.98H543.939H526.793ZM526.793 185.492V168.3V151.109H543.939H561.175V168.3V185.492H543.939H526.793ZM526.793 164.003V146.812V129.621H543.939H561.175V146.812V164.003H543.939H526.793ZM526.793 142.514V125.323V108.132H543.939H561.175V125.323V142.514H543.939H526.793ZM526.793 121.025V103.834V86.6431H543.939H561.175V103.834V121.025H543.939H526.793ZM526.793 99.5364V82.3454V65.1544H543.939H561.175V82.3454V99.5364H543.939H526.793ZM526.793 78.0476V60.8566V43.6656H543.939H561.175V60.8566V78.0476H543.939H526.793ZM526.793 56.5588V39.3678V22.1768H543.939H561.175V39.3678V56.5588H543.939H526.793ZM526.793 35.0701V17.879V0.68803H543.939H561.175V17.879V35.0701H543.939H526.793ZM677.424 271.447V254.256V237.065H694.57H711.806V254.256V271.447H694.57H677.424ZM698.913 271.447V254.256V237.065H716.059H733.295V254.256V271.447H716.059H698.913ZM720.401 271.447V254.256V237.065H737.548H754.783V254.256V271.447H737.548H720.401ZM655.935 249.958V232.767V215.576H673.081H690.317V232.767V249.958H673.081H655.935ZM741.89 249.958V232.767V215.576H759.036H776.272V232.767V249.958H759.036H741.89ZM655.935 228.469V211.278V194.087H673.081H690.317V211.278V228.469H673.081H655.935ZM741.89 228.469V211.278V194.087H759.036H776.272V211.278V228.469H759.036H741.89ZM655.935 206.98V189.789V172.598H673.081H690.317V189.789V206.98H673.081H655.935ZM741.89 206.98V189.789V172.598H759.036H776.272V189.789V206.98H759.036H741.89ZM655.935 185.492V168.3V151.109H673.081H690.317V168.3V185.492H673.081H655.935ZM741.89 185.492V168.3V151.109H759.036H776.272V168.3V185.492H759.036H741.89ZM655.935 164.003V146.812V129.621H673.081H690.317V146.812V164.003H673.081H655.935ZM741.89 164.003V146.812V129.621H759.036H776.272V146.812V164.003H759.036H741.89ZM655.935 142.514V125.323V108.132H673.081H690.317V125.323V142.514H673.081H655.935ZM741.89 142.514V125.323V108.132H759.036H776.272V125.323V142.514H759.036H741.89ZM655.935 121.025V103.834V86.6431H673.081H690.317V103.834V121.025H673.081H655.935ZM741.89 121.025V103.834V86.6431H759.036H776.272V103.834V121.025H759.036H741.89ZM655.935 99.5364V82.3454V65.1544H673.081H690.317V82.3454V99.5364H673.081H655.935ZM741.89 99.5364V82.3454V65.1544H759.036H776.272V82.3454V99.5364H759.036H741.89ZM655.935 78.0476V60.8566V43.6656H673.081H690.317V60.8566V78.0476H673.081H655.935ZM741.89 78.0476V60.8566V43.6656H759.036H776.272V60.8566V78.0476H759.036H741.89ZM655.935 56.5588V39.3678V22.1768H673.081H690.317V39.3678V56.5588H673.081H655.935ZM741.89 56.5588V39.3678V22.1768H759.036H776.272V39.3678V56.5588H759.036H741.89ZM806.482 335.913V318.722V301.531H823.629H840.864V318.722V335.913H823.629H806.482ZM806.482 314.424V297.233V280.042H823.629H840.864V297.233V314.424H823.629H806.482ZM806.482 292.935V275.744V258.553H823.629H840.864V275.744V292.935H823.629H806.482ZM806.482 271.447V254.256V237.065H823.629H840.864V254.256V271.447H823.629H806.482ZM849.46 271.447V254.256V237.065H866.606H883.842V254.256V271.447H866.606H849.46ZM870.949 271.447V254.256V237.065H888.095H905.331V254.256V271.447H888.095H870.949ZM806.482 249.958V232.767V215.576H823.629H840.864V232.767V249.958H823.629H806.482ZM827.971 249.958V232.767V215.576H845.117H862.353V232.767V249.958H845.117H827.971ZM892.438 249.958V232.767V215.576H909.584H926.82V232.767V249.958H909.584H892.438ZM806.482 228.469V211.278V194.087H823.629H840.864V211.278V228.469H823.629H806.482ZM892.438 228.469V211.278V194.087H909.584H926.82V211.278V228.469H909.584H892.438ZM806.482 206.98V189.789V172.598H823.629H840.864V189.789V206.98H823.629H806.482ZM892.438 206.98V189.789V172.598H909.584H926.82V189.789V206.98H909.584H892.438ZM806.482 185.492V168.3V151.109H823.629H840.864V168.3V185.492H823.629H806.482ZM892.438 185.492V168.3V151.109H909.584H926.82V168.3V185.492H909.584H892.438ZM806.482 164.003V146.812V129.621H823.629H840.864V146.812V164.003H823.629H806.482ZM892.438 164.003V146.812V129.621H909.584H926.82V146.812V164.003H909.584H892.438ZM806.482 142.514V125.323V108.132H823.629H840.864V125.323V142.514H823.629H806.482ZM827.971 142.514V125.323V108.132H845.117H862.353V125.323V142.514H845.117H827.971ZM892.438 142.514V125.323V108.132H909.584H926.82V125.323V142.514H909.584H892.438ZM806.482 121.025V103.834V86.6431H823.629H840.864V103.834V121.025H823.629H806.482ZM849.46 121.025V103.834V86.6431H866.606H883.842V103.834V121.025H866.606H849.46ZM870.949 121.025V103.834V86.6431H888.095H905.331V103.834V121.025H888.095H870.949Z" fill="#F24B27" />
</svg>
